<?xml version="1.0" standalone="no"?>
<!DOCTYPE svg PUBLIC "-//W3C//DTD SVG 20010904//EN"
 "http://www.w3.org/TR/2001/REC-SVG-20010904/DTD/svg10.dtd">
<svg version="1.0" xmlns="http://www.w3.org/2000/svg"
 width="894.000000pt" height="894.000000pt" viewBox="0 0 894.000000 894.000000"
 preserveAspectRatio="xMidYMid meet">
<metadata>
Created by potrace 1.14, written by Peter Selinger 2001-2017
</metadata>
<g transform="translate(0.000000,894.000000) scale(0.100000,-0.100000)"
fill="#39679a" stroke="none">
<path d="M0 4470 l0 -4470 4470 0 4470 0 0 4470 0 4470 -4470 0 -4470 0 0
-4470z m8850 0 l0 -4380 -4380 0 -4380 0 0 4380 0 4380 4380 0 4380 0 0 -4380z"/>
<path d="M145 8788 c-3 -7 -4 -1955 -3 -4328 l3 -4315 4325 0 4325 0 0 4325 0
4325 -4323 3 c-3453 2 -4324 0 -4327 -10z m5983 -1070 c2 -38 -1 -49 -8 -38
-8 12 -10 11 -10 -8 0 -13 4 -20 10 -17 7 4 10 -163 10 -494 l0 -501 -202 6
c-190 6 -612 -8 -668 -22 -20 -5 -22 -4 -10 6 12 9 9 10 -15 5 -16 -4 -37 -12
-45 -19 -8 -7 -31 -19 -50 -26 -19 -7 -40 -17 -47 -23 -7 -5 -18 -5 -24 -1 -8
5 -11 2 -7 -7 3 -8 -6 -22 -21 -34 -26 -19 -26 -19 -11 0 14 19 14 19 -3 6
-10 -8 -16 -20 -13 -27 3 -8 0 -13 -7 -11 -7 1 -11 -6 -11 -15 1 -10 -2 -16
-6 -13 -4 3 -11 -2 -14 -11 -3 -8 -2 -13 3 -9 5 3 4 -8 -2 -25 -8 -20 -14 -26
-19 -17 -5 7 -6 -8 -2 -33 4 -35 3 -42 -6 -30 -8 11 -10 3 -5 -35 3 -27 2 -42
-2 -33 -5 10 -7 -134 -6 -320 2 -222 6 -338 13 -339 7 -1 7 0 0 4 -5 2 -10 8
-10 11 0 4 272 7 605 7 333 0 605 -3 605 -7 0 -4 -8 -12 -17 -17 -10 -6 -12
-11 -5 -11 13 0 17 -40 4 -40 -4 0 -7 -17 -5 -37 2 -34 1 -35 -7 -13 -8 20 -9
17 -5 -18 6 -50 -5 -178 -14 -164 -3 5 -7 -25 -8 -68 -1 -49 -7 -91 -18 -113
-9 -20 -15 -44 -12 -54 3 -11 5 -7 6 11 0 16 4 27 7 24 3 -3 -6 -91 -20 -195
-14 -105 -26 -202 -26 -217 0 -15 -3 -25 -7 -23 -5 3 -9 -27 -11 -66 -1 -49
-7 -75 -17 -83 -8 -6 -12 -14 -9 -17 3 -3 -233 -5 -525 -4 -292 1 -528 1 -523
0 4 -2 5 -726 3 -1610 -2 -885 -7 -1585 -11 -1558 l-7 50 -1 -58 c-1 -37 2
-56 8 -52 6 4 10 -5 10 -19 l0 -26 -770 0 -770 0 0 1610 c0 1281 3 1610 13
1610 8 0 7 3 -3 10 -12 7 -12 12 -2 22 6 6 12 14 12 18 0 3 -176 4 -390 2
l-390 -2 0 557 1 558 379 -3 380 -2 0 392 c0 446 12 596 59 780 59 228 146
387 300 550 41 44 72 64 55 36 -4 -7 -3 -8 5 -4 6 4 9 11 6 16 -7 11 96 88
181 136 192 107 478 185 753 203 64 5 398 9 742 10 l626 1 1 -52z"/>
</g>
</svg>
