<?xml version="1.0" standalone="no"?>
<!DOCTYPE svg PUBLIC "-//W3C//DTD SVG 20010904//EN"
 "http://www.w3.org/TR/2001/REC-SVG-20010904/DTD/svg10.dtd">
<svg version="1.0" xmlns="http://www.w3.org/2000/svg"
 width="980.000000pt" height="882.000000pt" viewBox="0 0 980.000000 882.000000"
 preserveAspectRatio="xMidYMid meet">

<g transform="translate(0.000000,882.000000) scale(0.100000,-0.100000)"
fill="#276faa" stroke="none">
<path d="M3141 8810 c-526 -44 -917 -192 -1175 -444 -120 -118 -267 -327 -361
-516 -46 -92 -109 -280 -126 -380 -28 -165 -7 -429 80 -990 l29 -185 -50 -52
c-100 -107 -140 -251 -118 -434 15 -133 44 -247 84 -334 46 -99 77 -138 155
-193 177 -124 203 -158 235 -310 66 -308 135 -462 297 -664 201 -251 242 -380
209 -658 -45 -391 -207 -670 -518 -893 -295 -212 -793 -438 -1262 -573 -208
-60 -444 -137 -565 -183 l-50 -19 -3 -991 -2 -991 3920 0 3920 0 0 543 c0 598
1 589 -63 712 -52 100 -223 263 -399 379 -302 199 -656 362 -1338 615 -485
180 -840 355 -1080 532 -217 161 -357 347 -434 577 -48 146 -68 271 -70 432
-1 118 2 144 23 208 28 86 97 199 199 329 147 184 236 376 306 651 20 79 42
156 50 171 23 43 93 101 162 132 35 16 74 41 89 56 73 80 134 260 156 462 25
225 -30 412 -142 480 l-26 16 68 425 c75 467 81 554 53 721 -42 248 -167 509
-367 774 -248 327 -612 508 -1162 580 -141 19 -572 28 -724 15z"/>
<path d="M7350 5635 l0 -735 -735 0 -735 0 0 -490 0 -490 735 0 735 0 0 -735
0 -735 490 0 490 0 0 735 0 735 735 0 735 0 0 490 0 490 -735 0 -735 0 0 735
0 735 -490 0 -490 0 0 -735z"/>
</g>
</svg>
